<?xml version="1.0" encoding="utf-8"?>
<!-- Generator: Adobe Illustrator 16.0.0, SVG Export Plug-In . SVG Version: 6.00 Build 0)  -->
<!DOCTYPE svg PUBLIC "-//W3C//DTD SVG 1.1//EN" "http://www.w3.org/Graphics/SVG/1.1/DTD/svg11.dtd">
<svg version="1.1" id="Capa_1" xmlns="http://www.w3.org/2000/svg" xmlns:xlink="http://www.w3.org/1999/xlink" x="0px" y="0px"
	 width="841.89px" height="595.28px" viewBox="0 0 841.89 595.28" enable-background="new 0 0 841.89 595.28" xml:space="preserve">
<path fill="none" stroke="#FFFFFF" stroke-miterlimit="10" d="M116.924,138.897c6.65,0,12.042-5.391,12.042-12.042
	s-5.391-12.042-12.042-12.042c-6.651,0-12.042,5.391-12.042,12.042S110.273,138.897,116.924,138.897"/>
<path fill="none" stroke="#FFFFFF" stroke-miterlimit="10" d="M122.965,123.701c-0.444,0.196-0.921,0.33-1.421,0.39
	c0.512-0.307,0.904-0.791,1.088-1.368c-0.478,0.283-1.007,0.488-1.572,0.6c-0.451-0.481-1.095-0.782-1.806-0.782
	c-1.366,0-2.474,1.108-2.474,2.475c0,0.194,0.021,0.382,0.064,0.563c-2.057-0.103-3.88-1.087-5.101-2.585
	c-0.213,0.367-0.334,0.792-0.334,1.246c0,0.857,0.436,1.615,1.101,2.059c-0.405-0.012-0.788-0.125-1.121-0.309v0.031
	c0,1.199,0.853,2.2,1.986,2.426c-0.209,0.058-0.427,0.087-0.653,0.087c-0.16,0-0.315-0.015-0.465-0.045
	c0.315,0.984,1.229,1.7,2.311,1.718c-0.847,0.665-1.914,1.06-3.073,1.06c-0.2,0-0.398-0.011-0.591-0.034
	c1.095,0.702,2.396,1.111,3.793,1.111c4.552,0,7.041-3.77,7.041-7.041c0-0.108-0.002-0.215-0.007-0.321
	C122.215,124.633,122.635,124.197,122.965,123.701"/>
</svg>
