<?xml version="1.0" encoding="utf-8"?>
<!-- Generator: Adobe Illustrator 16.0.0, SVG Export Plug-In . SVG Version: 6.00 Build 0)  -->
<!DOCTYPE svg PUBLIC "-//W3C//DTD SVG 1.1//EN" "http://www.w3.org/Graphics/SVG/1.1/DTD/svg11.dtd">
<svg version="1.1" id="图层_1" xmlns="http://www.w3.org/2000/svg" xmlns:xlink="http://www.w3.org/1999/xlink" x="0px" y="0px"
	 width="595.28px" height="841.89px" viewBox="0 0 595.28 841.89" enable-background="new 0 0 595.28 841.89" xml:space="preserve">
<path fill-rule="evenodd" clip-rule="evenodd" fill="#FFFFFF" stroke="#FFFFFF" stroke-width="5" stroke-miterlimit="10" d="
	M471.082,268.835H83.492c-19.198,0-32.59,14.809-32.59,38.675v315.455c0,18.008,13.391,32.816,32.59,32.816h387.59
	c19.201,0,32.595-14.809,32.595-32.816V307.511C503.672,283.645,490.283,268.835,471.082,268.835z M485.294,622.013
	c0,8.486-6.37,15.389-14.21,15.389h-0.002H83.492c-7.836,0-14.21-6.902-14.21-15.389V417.981h416.013V622.013z M485.294,395.676
	H69.278V305.85c0-9.146,6.374-16.587,14.212-16.587h0.001h387.59c7.837,0,14.212,7.44,14.212,16.587V395.676z"/>
<path fill-rule="evenodd" clip-rule="evenodd" fill="#FFFFFF" stroke="#FFFFFF" stroke-width="5" stroke-miterlimit="10" d="
	M121.789,341.606c-0.004,12.014,9.732,21.759,21.747,21.764c12.015,0.005,21.759-9.732,21.765-21.747c0-0.005,0-0.011,0-0.017
	c0.004-12.016-9.733-21.759-21.747-21.765c-12.015-0.004-21.759,9.733-21.765,21.747
	C121.789,341.595,121.789,341.598,121.789,341.606L121.789,341.606z"/>
<path fill-rule="evenodd" clip-rule="evenodd" fill="#FFFFFF" stroke="#FFFFFF" stroke-width="5" stroke-miterlimit="10" d="
	M180.772,341.606c-0.005,12.014,9.733,21.759,21.747,21.764s21.76-9.732,21.764-21.747c0-0.005,0-0.011,0-0.017
	c0.005-12.016-9.733-21.759-21.746-21.765c-12.016-0.004-21.759,9.733-21.765,21.747
	C180.772,341.595,180.772,341.598,180.772,341.606L180.772,341.606z"/>
<path fill-rule="evenodd" clip-rule="evenodd" fill="#FFFFFF" stroke="#FFFFFF" stroke-width="5" stroke-miterlimit="10" d="
	M239.756,341.606c0-12.016,9.741-21.756,21.756-21.756c12.016,0,21.753,9.741,21.753,21.756l0,0
	c0,12.016-9.736,21.754-21.753,21.754C249.497,363.36,239.756,353.622,239.756,341.606L239.756,341.606L239.756,341.606z"/>
<polygon fill-rule="evenodd" clip-rule="evenodd" fill="#FFFFFF" stroke="#FFFFFF" stroke-width="5" stroke-miterlimit="10" points="
	253.018,582.564 269.9,582.681 307.34,466.119 290.515,466.148 253.019,582.564 253.018,582.564 253.018,582.564 "/>
<polygon fill-rule="evenodd" clip-rule="evenodd" fill="#FFFFFF" stroke="#FFFFFF" stroke-width="5" stroke-miterlimit="10" points="
	121.697,528.564 121.676,534.474 121.687,540.48 197.411,570.08 197.42,556.136 148.944,534.927 197.749,515.492 197.82,500.949 
	121.697,528.564 121.697,528.564 "/>
<polygon fill-rule="evenodd" clip-rule="evenodd" fill="#FFFFFF" stroke="#FFFFFF" stroke-width="5" stroke-miterlimit="10" points="
	365.582,502.173 365.656,516.714 414.461,536.15 365.982,557.357 365.994,571.306 441.715,541.707 441.724,535.701 441.704,529.789 
	365.582,502.173 365.582,502.173 "/>
<path fill-rule="evenodd" clip-rule="evenodd" fill="#FFFFFF" stroke="#FFFFFF" stroke-width="5" stroke-miterlimit="10" d="
	M541.856,207.328h-387.59c-19.198,0-32.59,14.81-32.59,38.675v9.958h18.377v-11.617c0-9.146,6.374-16.587,14.211-16.587h0.002
	h387.59c7.838,0,14.211,7.441,14.211,16.587v75.506v14.319v22.307v91.872v112.16c0,8.486-6.369,15.389-14.208,15.389h-0.003h-23.219
	v18.377h23.219c19.201,0,32.596-14.807,32.596-32.816V246.005C574.447,222.138,561.058,207.328,541.856,207.328z"/>
</svg>
